<?xml version="1.0" encoding="utf-8"?>
<svg viewBox="28.75 41.527 715.771 728.326" xmlns="http://www.w3.org/2000/svg">
  <g transform="matrix(0.9316460490226746, 0, 0, 0.9463650584220886, -313.0523376464844, 15.88166618347168)" style="">
    <svg viewBox="0 0 366 335" data-background-color="#000000" preserveAspectRatio="xMidYMid meet" height="1372" width="1500" xmlns="http://www.w3.org/2000/svg">
      <g id="tight-bounds" transform="matrix(1,0,0,1,0.4275545673415593,7.3419592858275)">
        <svg viewBox="0 0 365.1448491692144 327.2" height="327.2" width="365.1448491692144">
          <g>
            <svg viewBox="0 0 395.52 354.41864863887827" height="327.2" width="365.1448491692144">
              <g transform="matrix(1,0,0,1,0,230.2499564558879)">
                <svg viewBox="0 0 395.52 124.16869218299038" height="124.16869218299038" width="395.52">
                  <g id="textblocktransform">
                    <svg viewBox="0 0 395.52 124.16869218299038" height="124.16869218299038" width="395.52" id="textblock">
                      <g>
                        <svg viewBox="0 0 395.52 78.59401188696165" height="78.59401188696165" width="395.52">
                          <g transform="matrix(1,0,0,1,0,0)">
                            <svg width="395.52" viewBox="-2.1839195312499995 -16.510150733349956 120.2041542411503 23.88584445205896" height="78.59401188696165" data-palette-color="#d5cfd8"/>
                          </g>
                        </svg>
                      </g>
                      <g transform="matrix(1,0,0,1,118.31980799999998,86.70485005827439)">
                        <svg viewBox="0 0 158.88038400000002 37.46384212471599" height="37.46384212471599" width="158.88038400000002">
                          <g transform="matrix(1,0,0,1,0,0)">
                            <svg width="158.88038400000002" viewBox="4.25 -36.3 198.03 46.699999999999996" height="37.46384212471599" data-palette-color="#d5cfd8"/>
                          </g>
                        </svg>
                      </g>
                    </svg>
                  </g>
                </svg>
              </g>
              <g transform="matrix(1,0,0,1,97.35832196185187,0)">
                <svg viewBox="0 0 200.80335607629624 200.90494395207844" height="200.90494395207844" width="200.80335607629624">
                  <g>
                    <svg xmlns="http://www.w3.org/2000/svg" version="1.1" x="0" y="0" viewBox="16.259999195466268 19.406 63.434907819561644 63.467000000000006" enable-background="new 0 0 100 100" height="200.90494395207844" width="200.80335607629624" class="icon-icon-0" data-fill-palette-color="accent" id="icon-0">
                      <g fill="#e8e8e8" data-fill-palette-color="accent">
                        <path fill="#e8e8e8" d="M64.978 24.351A31.63 31.63 0 0 0 48.003 19.406C37.065 19.406 27.04 24.912 21.186 34.135A31.6 31.6 0 0 0 17.266 43.168C17.256 43.205 17.245 43.24 17.239 43.279 13.939 56.222 19.097 70.393 30.97 77.929A31.64 31.64 0 0 0 47.944 82.873H47.945C58.883 82.873 68.909 77.366 74.763 68.142 84.138 53.371 79.749 33.727 64.978 24.351M59.925 53.228A1.063 1.063 0 0 0 61.189 54.043C66.796 52.832 72.568 52.621 77.479 53.438A29.4 29.4 0 0 1 75.962 60.77C63.961 56.583 55.437 60.424 47.196 64.157 40.614 67.139 33.803 70.224 25.004 69.394 24.898 69.385 24.798 69.408 24.699 69.428A29.6 29.6 0 0 1 20.333 61.708C21.97 62.127 23.589 62.312 25.188 62.312 32.079 62.312 38.59 58.857 44.497 55.721 46.242 54.795 47.891 53.92 49.544 53.125 57.861 49.126 68.785 47.737 77.515 49.534 77.548 50.122 77.564 50.711 77.562 51.301 72.389 50.479 66.588 50.7 60.74 51.964A1.063 1.063 0 0 0 59.925 53.228M76.223 42.355C76.727 43.98 77.095 45.645 77.316 47.332 68.266 45.636 57.136 47.115 48.623 51.209 46.932 52.022 45.187 52.948 43.502 53.843 35.83 57.915 27.9 62.119 19.52 59.239A29.7 29.7 0 0 1 19.222 44.122C23.822 41.297 27.191 42.261 31.423 43.486 33.91 44.207 36.639 44.997 39.873 44.997 41.084 44.997 42.367 44.886 43.734 44.619 46.539 44.071 49.274 43.314 51.919 42.582 59.97 40.355 67.576 38.25 75.943 42.283 76.033 42.327 76.128 42.338 76.223 42.355M75.239 39.651C66.816 36.257 59.291 38.338 51.35 40.534 48.745 41.255 46.049 42 43.325 42.533 38.813 43.415 35.356 42.414 32.013 41.445 28.189 40.338 24.543 39.293 20.07 41.274A29 29 0 0 1 21.62 37.666C22.969 37.225 23.657 37.199 24.785 37.246 25.358 37.261 25.868 36.816 25.892 36.229A1.063 1.063 0 0 0 24.875 35.122 11.5 11.5 0 0 0 23.058 35.161C23.481 34.501 23.934 33.867 24.402 33.249 24.452 33.243 24.502 33.242 24.553 33.229 29.32 31.961 33.099 32.27 37.103 32.595 44.025 33.158 51.187 33.731 63.366 25.869 63.523 25.964 63.684 26.048 63.84 26.146A29.43 29.43 0 0 1 75.239 39.651M34.186 24.936C34.263 24.99 34.337 25.048 34.431 25.081 34.743 25.189 39.364 26.751 45.733 26.751 49.868 26.751 54.741 26.09 59.649 23.948 60.186 24.179 60.714 24.43 61.239 24.693 50.279 31.51 43.949 31.019 37.275 30.476 33.981 30.207 30.587 29.948 26.641 30.615A29.3 29.3 0 0 1 34.186 24.936M56.645 22.841C48.487 25.661 40.607 24.428 37.072 23.601A29.7 29.7 0 0 1 48.004 21.533 29.4 29.4 0 0 1 56.645 22.841M47.943 80.747C46.676 80.747 45.42 80.654 44.173 80.493 50.596 78.009 54.44 76.806 61.377 77.539A29.64 29.64 0 0 1 47.943 80.747M64.368 75.794C64.349 75.79 64.336 75.778 64.317 75.775 54.356 74.233 50.09 75.898 41.592 79.215L40.295 79.721A29.6 29.6 0 0 1 32.107 76.133 30 30 0 0 1 29.906 74.584C30.426 74.608 30.946 74.631 31.464 74.631 37.779 74.631 43.946 72.926 49.944 71.268 57.498 69.18 64.656 67.214 72.077 68.311A29.5 29.5 0 0 1 64.368 75.794M73.35 66.366C65.121 64.872 57.121 67.08 49.379 69.22 42.302 71.176 34.979 73.2 27.663 72.272A1.1 1.1 0 0 0 27.272 72.301 30 30 0 0 1 26.607 71.626C27.054 71.645 27.498 71.657 27.934 71.657 35.785 71.657 42.02 68.833 48.073 66.092 56.276 62.376 64.039 58.883 75.2 62.754A30 30 0 0 1 73.35 66.366" data-fill-palette-color="accent"/>
                        <path fill="#e8e8e8" d="M46.831 45.287C44.782 45.848 42.575 46.427 40.325 46.866 36.194 47.674 32.93 46.903 29.673 45.969A1.064 1.064 0 0 0 29.088 48.013C31.549 48.718 34.018 49.336 36.855 49.336 38.071 49.336 39.356 49.222 40.735 48.953 43.052 48.5 45.305 47.909 47.393 47.338A1.064 1.064 0 1 0 46.831 45.287" data-fill-palette-color="accent"/>
                        <path fill="#e8e8e8" d="M43.248 39.034C41.313 39.244 39.44 39.153 37.522 38.751 35.557 38.34 33.784 37.661 32.067 37.004 30.985 36.59 29.963 36.199 28.903 35.872A1.062 1.062 0 1 0 28.278 37.904C29.27 38.21 30.259 38.589 31.307 38.989 33.101 39.676 34.955 40.386 37.086 40.832A20.2 20.2 0 0 0 43.478 41.146 1.063 1.063 0 0 0 43.248 39.034" data-fill-palette-color="accent"/>
                        <path fill="#e8e8e8" d="M54.729 54.012A46 46 0 0 0 51.703 55.27 1.062 1.062 0 1 0 52.592 57.201 43 43 0 0 1 55.476 56.002 1.062 1.062 0 1 0 54.729 54.012" data-fill-palette-color="accent"/>
                        <path fill="#e8e8e8" d="M54.746 71.707C52.873 71.854 51.058 72.195 49.032 72.778 48.05 73.059 47.012 73.398 45.764 73.844A1.064 1.064 0 0 0 46.48 75.846 50 50 0 0 1 49.618 74.821C51.503 74.278 53.185 73.963 54.913 73.826A1.064 1.064 0 0 0 55.889 72.682 1.074 1.074 0 0 0 54.746 71.707" data-fill-palette-color="accent"/>
                      </g>
                    </svg>
                  </g>
                </svg>
              </g>
              <g/>
            </svg>
          </g>
          <defs/>
        </svg>
      </g>
    </svg>
  </g>
</svg>