<?xml version="1.0" encoding="utf-8"?>
<svg viewBox="14.375 71.874 2081.383 592.564" xmlns="http://www.w3.org/2000/svg" xmlns:bx="https://boxy-svg.com">
  <defs>
    <style bx:fonts="Afacad">@import url(https://fonts.googleapis.com/css2?family=Afacad%3Aital%2Cwght%400%2C400..700%3B1%2C400..700&amp;display=swap);</style>
  </defs>
  <g transform="matrix(0.9465980529785156, 0, 0, 1, 204.40859985351562, 177.18394470214844)" style="">
    <svg viewBox="0 0 366 335" data-background-color="#000000" preserveAspectRatio="xMidYMid meet" height="1372" width="1500" xmlns="http://www.w3.org/2000/svg">
      <g id="tight-bounds" transform="matrix(1,0,0,1,0.4275545673415593,7.3419592858275)">
        <svg viewBox="0 0 365.1448491692144 327.2" height="327.2" width="365.1448491692144">
          <g>
            <svg viewBox="0 0 395.52 354.41864863887827" height="327.2" width="365.1448491692144">
              <g transform="matrix(0.653955, 0, 0, 0.650639, 133.829758, 34.262596)" style="">
                <svg viewBox="0 0 395.52 124.16869218299038" height="124.16869218299038" width="395.52">
                  <g id="textblocktransform">
                    <svg viewBox="0 0 395.52 124.16869218299038" height="124.16869218299038" width="395.52" id="textblock">
                      <g>
                        <svg viewBox="0 0 395.52 78.59401188696165" height="78.59401188696165" width="395.52">
                          <g transform="matrix(1,0,0,1,0,0)">
                            <svg width="395.52" viewBox="-2.1839195312499995 -16.510150733349956 120.2041542411503 23.88584445205896" height="78.59401188696165" data-palette-color="#d5cfd8"/>
                          </g>
                        </svg>
                      </g>
                      <g transform="matrix(1,0,0,1,118.31980799999998,86.70485005827439)">
                        <svg viewBox="0 0 158.88038400000002 37.46384212471599" height="37.46384212471599" width="158.88038400000002">
                          <g transform="matrix(1,0,0,1,0,0)">
                            <svg width="158.88038400000002" viewBox="4.25 -36.3 198.03 46.699999999999996" height="37.46384212471599" data-palette-color="#d5cfd8"/>
                          </g>
                        </svg>
                      </g>
                    </svg>
                  </g>
                </svg>
              </g>
              <g transform="matrix(0.585571, 0, 0, 0.57737, 4.423673, 0.844861)" style="">
                <svg viewBox="0 0 200.80335607629624 200.90494395207844" height="200.90494395207844" width="200.80335607629624">
                  <g>
                    <svg xmlns="http://www.w3.org/2000/svg" version="1.1" x="0" y="0" viewBox="16.259999195466268 19.406 63.434907819561644 63.467000000000006" enable-background="new 0 0 100 100" height="200.90494395207844" width="200.80335607629624" class="icon-icon-0" data-fill-palette-color="accent" id="icon-0">
                      <g fill="#343a40" data-fill-palette-color="accent">
                        <path fill="#343a40" d="M 51.85 22.838 C 48.144 20.597 43.842 19.407 39.449 19.406 C 31.459 19.406 24.135 23.228 19.859 29.629 C 18.565 31.564 17.599 33.68 16.995 35.899 C 16.988 35.925 16.98 35.949 16.975 35.976 C 14.564 44.96 18.333 54.796 27.006 60.026 C 30.712 62.267 35.014 63.457 39.406 63.458 L 39.407 63.458 C 47.398 63.458 54.722 59.636 58.999 53.233 C 65.847 42.981 62.641 29.346 51.85 22.838 M 48.159 42.882 C 48.249 43.28 48.663 43.534 49.082 43.447 C 53.178 42.607 57.395 42.46 60.983 43.027 C 60.843 44.762 60.471 46.472 59.875 48.116 C 51.107 45.21 44.88 47.876 38.86 50.467 C 34.052 52.537 29.076 54.678 22.648 54.102 C 22.57 54.096 22.497 54.112 22.425 54.126 C 21.085 52.502 20.009 50.696 19.235 48.768 C 20.431 49.058 21.614 49.187 22.782 49.187 C 27.816 49.187 32.573 46.789 36.888 44.612 C 38.163 43.969 39.368 43.362 40.575 42.81 C 46.651 40.034 54.632 39.07 61.009 40.318 C 61.033 40.726 61.045 41.135 61.043 41.544 C 57.264 40.974 53.027 41.127 48.754 42.004 C 48.335 42.09 48.068 42.483 48.159 42.882 M 60.065 35.335 C 60.433 36.463 60.702 37.618 60.864 38.789 C 54.252 37.612 46.121 38.639 39.902 41.48 C 38.667 42.045 37.392 42.687 36.161 43.308 C 30.557 46.135 24.763 49.053 18.642 47.054 C 17.617 43.633 17.542 40.018 18.424 36.561 C 21.784 34.6 24.246 35.269 27.337 36.12 C 29.154 36.62 31.148 37.169 33.51 37.169 C 34.395 37.169 35.332 37.091 36.331 36.906 C 38.38 36.526 40.378 36 42.31 35.492 C 48.192 33.947 53.748 32.485 59.861 35.285 C 59.926 35.315 59.996 35.323 60.065 35.335 M 59.346 33.458 C 53.193 31.102 47.696 32.547 41.895 34.071 C 39.992 34.571 38.022 35.088 36.032 35.458 C 32.736 36.07 30.21 35.376 27.768 34.703 C 24.975 33.935 22.311 33.209 19.043 34.584 C 19.361 33.726 19.739 32.89 20.176 32.08 C 21.161 31.774 21.664 31.756 22.488 31.789 C 22.906 31.799 23.279 31.49 23.297 31.083 C 23.315 30.676 22.982 30.332 22.554 30.314 C 22.111 30.29 21.667 30.299 21.226 30.341 C 21.535 29.883 21.866 29.443 22.208 29.014 C 22.245 29.01 22.281 29.009 22.318 29 C 25.801 28.12 28.562 28.335 31.487 28.56 C 36.543 28.951 41.776 29.349 50.673 23.892 C 50.787 23.958 50.905 24.016 51.019 24.084 C 54.74 26.324 57.647 29.597 59.346 33.458 M 29.356 23.244 C 29.412 23.282 29.466 23.322 29.535 23.345 C 29.763 23.42 33.138 24.504 37.791 24.504 C 40.812 24.504 44.372 24.045 47.957 22.559 C 48.35 22.719 48.735 22.893 49.119 23.076 C 41.112 27.807 36.488 27.467 31.612 27.09 C 29.206 26.903 26.726 26.723 23.844 27.186 C 25.445 25.598 27.306 24.266 29.356 23.244 M 45.763 21.79 C 39.803 23.748 34.046 22.892 31.464 22.318 C 34.007 21.366 36.717 20.879 39.45 20.882 C 41.59 20.884 43.718 21.19 45.763 21.79 M 39.406 61.982 C 38.48 61.982 37.562 61.918 36.652 61.806 C 41.344 60.082 44.152 59.247 49.22 59.756 C 46.179 61.222 42.816 61.985 39.406 61.982 M 51.405 58.545 C 51.391 58.542 51.381 58.533 51.367 58.531 C 44.091 57.461 40.974 58.617 34.766 60.919 L 33.818 61.27 C 31.703 60.733 29.687 59.893 27.837 58.78 C 27.284 58.444 26.748 58.086 26.229 57.705 C 26.609 57.721 26.989 57.737 27.367 57.737 C 31.98 57.737 36.486 56.554 40.867 55.403 C 46.386 53.954 51.615 52.589 57.036 53.351 C 55.51 55.395 53.601 57.155 51.405 58.545 M 57.966 52.001 C 51.955 50.964 46.111 52.496 40.455 53.982 C 35.285 55.339 29.935 56.744 24.59 56.1 C 24.495 56.09 24.398 56.097 24.305 56.12 C 24.14 55.966 23.978 55.81 23.819 55.652 C 24.145 55.665 24.47 55.673 24.788 55.673 C 30.524 55.673 35.079 53.713 39.501 51.81 C 45.493 49.231 51.164 46.807 59.318 49.494 C 58.927 50.357 58.476 51.195 57.966 52.001" data-fill-palette-color="accent" style=""/>
                        <path fill="#343a40" d="M 38.593 37.37 C 37.096 37.759 35.484 38.161 33.84 38.466 C 30.823 39.027 28.438 38.491 26.059 37.843 C 25.477 37.71 24.962 38.225 25.131 38.771 C 25.204 39.002 25.39 39.186 25.631 39.262 C 27.429 39.751 29.233 40.18 31.305 40.18 C 32.194 40.18 33.133 40.101 34.14 39.914 C 35.833 39.6 37.478 39.19 39.004 38.793 C 39.586 38.663 39.802 37.983 39.392 37.569 C 39.188 37.362 38.878 37.285 38.593 37.37" data-fill-palette-color="accent" style=""/>
                        <path fill="#343a40" d="M 35.976 33.03 C 34.562 33.175 33.194 33.112 31.793 32.833 C 30.357 32.548 29.062 32.077 27.808 31.621 C 27.017 31.333 26.271 31.062 25.496 30.835 C 24.925 30.668 24.377 31.151 24.511 31.705 C 24.573 31.962 24.774 32.168 25.04 32.245 C 25.764 32.458 26.487 32.721 27.252 32.998 C 28.563 33.475 29.917 33.968 31.474 34.278 C 33.009 34.586 34.585 34.659 36.144 34.496 C 36.735 34.413 37.011 33.753 36.639 33.308 C 36.48 33.116 36.232 33.012 35.976 33.03" data-fill-palette-color="accent" style=""/>
                        <path fill="#343a40" d="M 44.363 43.426 C 43.616 43.692 42.878 43.983 42.152 44.299 C 41.609 44.536 41.541 45.243 42.029 45.571 C 42.255 45.724 42.55 45.749 42.802 45.639 C 43.493 45.338 44.196 45.06 44.909 44.807 C 45.468 44.607 45.591 43.907 45.129 43.547 C 44.915 43.379 44.623 43.333 44.363 43.426" data-fill-palette-color="accent" style=""/>
                        <path fill="#343a40" d="M 44.375 55.708 C 43.007 55.81 41.681 56.046 40.201 56.451 C 39.484 56.646 38.726 56.881 37.814 57.191 C 37.259 57.404 37.156 58.108 37.628 58.458 C 37.828 58.607 38.094 58.653 38.337 58.581 C 39.093 58.32 39.857 58.082 40.629 57.869 C 42.006 57.492 43.235 57.274 44.497 57.179 C 44.925 57.146 45.244 56.791 45.21 56.385 C 45.172 55.981 44.801 55.68 44.375 55.708" data-fill-palette-color="accent" style=""/>
                      </g>
                    </svg>
                  </g>
                </svg>
              </g>
              <g/>
            </svg>
          </g>
          <defs/>
        </svg>
      </g>
    </svg>
  </g>
  <text style="fill: #343a40; font-family: Afacad; font-size: 350px; word-spacing: 2.7px; white-space: pre;" x="624.508" y="488.391" dx="-143.749" dy="-75.069" transform="matrix(1.1508309841156006, 0, 0, 0.8907089829444885, 18.436594009399414, 98.03541564941406)">VENUS</text>
</svg>